# xmcd
#
# Track frame offsets:
#	150
#	14957
#	29565
#	43632
#	60840
#	79857
#	95752
#	111750
#	128637
#	142490
#	154007
#	172935
#	189252
#	203162
#	219682
#	235300
#	251045
#
# Disc length: 3499 seconds
#
# Revision: 1
# Processed by: cddbd v1.5.2PL0 Copyright (c) Steve Scherf et al.
# Submitted via: audiograbber 1.83.01
#
DISCID=f50da911
DTITLE=Various Artist - MCA Radio Golden Oldies
DYEAR=1900
DGENRE=Country
TTITLE0=Oak Ridge Boys - Baby, You'll Be My Baby
TTITLE1=Reab Mcentire - Walk On
TTITLE2=George Strait - Love Without End, Amen
TTITLE3=Reba Mcentire - New Fool At An Old Game
TTITLE4=Patty Loveless - Don't Toss Us Away
TTITLE5=Lionel Cartwright - Like Father Like Son
TTITLE6=Steve Wariner - Where Did I Go Wrong
TTITLE7=Conway Twitty - She's Got A Single Thing In Mind
TTITLE8=Reba Mcentire - Cathy's Clown
TTITLE9=Patty Loveless - Timber I'm Falling In Love
TTITLE10=Lionel Cartwright - Give Me His Last Chance
TTITLE11=George Strait - Famous Last Words Of A Fool
TTITLE12=Patty Loveless - If My Heart Had Windows
TTITLE13=Steve Wariner - Baby I'm Yours
TTITLE14=Conway Twitty - Goodbye Time
TTITLE15=Steve Wariner - I Should Be With You
TTITLE16=Lionel Cartwrioght - You're Gonna Make Her Mine
EXTD=
EXTT0=
EXTT1=
EXTT2=
EXTT3=
EXTT4=
EXTT5=
EXTT6=
EXTT7=
EXTT8=
EXTT9=
EXTT10=
EXTT11=
EXTT12=
EXTT13=
EXTT14=
EXTT15=
EXTT16=
PLAYORDER=
